<mxfile host="app.diagrams.net" modified="2024-07-16T03:34:10.328Z" agent="Mozilla/5.0 (Windows NT 10.0; Win64; x64) AppleWebKit/537.36 (KHTML, like Gecko) Chrome/126.0.0.0 Safari/537.36" etag="uahl0q4JzLdZucW8g3yA" version="24.3.0" type="device" pages="2">
  <diagram name="Page-1" id="Ijt8rfuYEuXJtzr1WgjJ">
    <mxGraphModel dx="1221" dy="725" grid="1" gridSize="10" guides="1" tooltips="1" connect="1" arrows="1" fold="1" page="1" pageScale="1" pageWidth="850" pageHeight="1100" math="0" shadow="0">
      <root>
        <mxCell id="0" />
        <mxCell id="1" parent="0" />
        <mxCell id="dtK3XxjgUPxbYUQc2Yd6-5" style="edgeStyle=orthogonalEdgeStyle;rounded=0;orthogonalLoop=1;jettySize=auto;html=1;exitX=0.5;exitY=1;exitDx=0;exitDy=0;entryX=0.5;entryY=0;entryDx=0;entryDy=0;" parent="1" source="dtK3XxjgUPxbYUQc2Yd6-3" target="dtK3XxjgUPxbYUQc2Yd6-4" edge="1">
          <mxGeometry relative="1" as="geometry" />
        </mxCell>
        <mxCell id="dtK3XxjgUPxbYUQc2Yd6-3" value="&lt;b&gt;Goal : &lt;/b&gt;to convert casual riders into annual memberships riders" style="rounded=0;whiteSpace=wrap;html=1;" parent="1" vertex="1">
          <mxGeometry x="300" y="50" width="220" height="60" as="geometry" />
        </mxCell>
        <mxCell id="dtK3XxjgUPxbYUQc2Yd6-7" style="edgeStyle=orthogonalEdgeStyle;rounded=0;orthogonalLoop=1;jettySize=auto;html=1;exitX=0.5;exitY=1;exitDx=0;exitDy=0;entryX=0.5;entryY=0;entryDx=0;entryDy=0;" parent="1" source="dtK3XxjgUPxbYUQc2Yd6-4" target="dtK3XxjgUPxbYUQc2Yd6-6" edge="1">
          <mxGeometry relative="1" as="geometry" />
        </mxCell>
        <mxCell id="dtK3XxjgUPxbYUQc2Yd6-4" value="&lt;b&gt;How to achieve:&amp;nbsp;&lt;/b&gt;&lt;div&gt;New Marketing Campaign&lt;/div&gt;" style="rounded=0;whiteSpace=wrap;html=1;" parent="1" vertex="1">
          <mxGeometry x="350" y="170" width="120" height="60" as="geometry" />
        </mxCell>
        <mxCell id="dtK3XxjgUPxbYUQc2Yd6-6" value="How to design new marketing campaign?" style="rounded=0;whiteSpace=wrap;html=1;" parent="1" vertex="1">
          <mxGeometry x="350" y="280" width="120" height="60" as="geometry" />
        </mxCell>
        <mxCell id="dtK3XxjgUPxbYUQc2Yd6-9" style="edgeStyle=orthogonalEdgeStyle;rounded=0;orthogonalLoop=1;jettySize=auto;html=1;exitX=0.5;exitY=0;exitDx=0;exitDy=0;entryX=0;entryY=0.5;entryDx=0;entryDy=0;" parent="1" source="dtK3XxjgUPxbYUQc2Yd6-8" target="dtK3XxjgUPxbYUQc2Yd6-6" edge="1">
          <mxGeometry relative="1" as="geometry" />
        </mxCell>
        <mxCell id="dtK3XxjgUPxbYUQc2Yd6-8" value="How do casual riders differ from annual membership riders?" style="rounded=0;whiteSpace=wrap;html=1;" parent="1" vertex="1">
          <mxGeometry x="110" y="400" width="120" height="60" as="geometry" />
        </mxCell>
      </root>
    </mxGraphModel>
  </diagram>
  <diagram id="QcB-v3KGsGA5gZIiIif4" name="Analysis: How do casual riders differ?">
    <mxGraphModel dx="1221" dy="725" grid="1" gridSize="10" guides="1" tooltips="1" connect="1" arrows="1" fold="1" page="1" pageScale="1" pageWidth="850" pageHeight="1100" math="0" shadow="0">
      <root>
        <mxCell id="0" />
        <mxCell id="1" parent="0" />
        <mxCell id="3Y2sD1nndmuItf-J9gTW-1" value="&lt;b&gt;Background: &lt;/b&gt;The company has 5800 bikes of various types, and 600 docking station. The majority of the riders use traditional bike, and 8% opt for the more assistive options.&amp;nbsp; Most riders do so more for leisure, but about 30% do so for daily commuting.&amp;nbsp;&lt;div&gt;&lt;br&gt;&lt;/div&gt;&lt;div&gt;&lt;b&gt;Stakeholders:&amp;nbsp;&lt;/b&gt;&lt;/div&gt;&lt;div&gt;Lily Moreno: Director of marketing&lt;/div&gt;" style="rounded=0;whiteSpace=wrap;html=1;align=left;" parent="1" vertex="1">
          <mxGeometry x="50" y="60" width="750" height="260" as="geometry" />
        </mxCell>
      </root>
    </mxGraphModel>
  </diagram>
</mxfile>
